<?xml version="1.0" encoding="utf-8"?>
<svg xml:space="preserve" viewBox="0 0 100 100" y="0" x="0" xmlns="http://www.w3.org/2000/svg" id="Layer_1" version="1.1" style="height: 100%; width: 100%; background: none; shape-rendering: auto; animation-play-state: running; animation-delay: 0s;" width="200px" height="200px"><g style="transform-origin: 50% 50% 0px; transform: rotate(0deg) scale(0.8); animation-play-state: running; animation-delay: 0s;" class="ldl-scale"><g class="ldl-ani" style="animation-play-state: running; animation-delay: 0s;"><g class="ldl-layer" style="animation-play-state: running; animation-delay: 0s;"><g class="ldl-ani" style="animation-play-state: running; animation-delay: 0s;"><g style="animation-play-state: running; animation-delay: 0s;"><g class="ldl-layer" style="animation-play-state: running; animation-delay: 0s;"><g class="ldl-ani" style="transform-origin: 50px 50px 0px; transform: scale(0.91); animation: 14.2857s linear -9.52381s infinite normal forwards running breath-67a74f91-432f-45e3-b353-b79646b078ab;"><path d="M82.7 87.7c-1.3 0-2.6-.5-3.5-1.5L61.5 68.5c-2-2-2-5.1 0-7.1s5.1-2 7.1 0l17.7 17.7c2 2 2 5.1 0 7.1-1.1 1-2.3 1.5-3.6 1.5z" style="animation-play-state: running; animation-delay: 0s;"></path></g></g></g></g></g><g class="ldl-layer" style="animation-play-state: running; animation-delay: 0s;"><g class="ldl-ani" style="animation-play-state: running; animation-delay: 0s;"><g style="animation-play-state: running; animation-delay: 0s;"><g class="ldl-layer" style="animation-play-state: running; animation-delay: 0s;"><g class="ldl-ani" style="transform-origin: 50px 50px 0px; transform: scale(0.91); animation: 14.2857s linear -11.9048s infinite normal forwards running breath-67a74f91-432f-45e3-b353-b79646b078ab;"><circle r="27.5" fill="#e0e0e0" cy="43.8" cx="43.8" transform="rotate(-45.001 43.797 43.798)" style="fill: rgb(224, 224, 224); animation-play-state: running; animation-delay: 0s;"></circle></g></g><g class="ldl-layer" style="animation-play-state: running; animation-delay: 0s;"><g class="ldl-ani" style="transform-origin: 50px 50px 0px; transform: scale(0.91); animation: 14.2857s linear -14.2857s infinite normal forwards running breath-67a74f91-432f-45e3-b353-b79646b078ab;"><path fill="#666766" d="M43.8 75.3c-8.1 0-16.1-3.1-22.3-9.2-12.3-12.3-12.3-32.3 0-44.5C33.8 9.3 53.8 9.3 66 21.6c12.3 12.3 12.3 32.3 0 44.5-6.1 6.1-14.1 9.2-22.2 9.2zm0-55c-6 0-12 2.3-16.6 6.9-9.2 9.2-9.2 24.1 0 33.2 9.2 9.2 24.1 9.2 33.2 0 4.4-4.4 6.9-10.3 6.9-16.6s-2.4-12.2-6.9-16.6c-4.6-4.6-10.6-6.9-16.6-6.9z" style="fill: rgb(221, 175, 59); animation-play-state: running; animation-delay: 0s;"></path></g></g></g></g></g><metadata xmlns:d="https://loading.io/stock/" style="animation-play-state: running; animation-delay: 0s;"><d:name style="animation-play-state: running; animation-delay: 0s;">magnify</d:name><d:tags style="animation-play-state: running; animation-delay: 0s;">search,lookup,find,help,guide,documentation,magnify,web application</d:tags><d:license style="animation-play-state: running; animation-delay: 0s;">by</d:license><d:slug style="animation-play-state: running; animation-delay: 0s;">ku1ziz</d:slug></metadata></g></g><style id="breath-67a74f91-432f-45e3-b353-b79646b078ab" data-anikit="">@keyframes breath-67a74f91-432f-45e3-b353-b79646b078ab
{
  0% {
    animation-timing-function: cubic-bezier(0.9647,0.2413,-0.0705,0.7911);
    transform: scale(0.9099999999999999);
  }
  51% {
    animation-timing-function: cubic-bezier(0.9226,0.2631,-0.0308,0.7628);
    transform: scale(1.02994);
  }
  100% {
    transform: scale(0.9099999999999999);
  }
}</style><!-- [ldio] generated by https://loading.io/ --></svg>